<svg width="341" height="53" viewBox="0 0 341 53" fill="none" xmlns="http://www.w3.org/2000/svg">
<path d="M97.8398 36.668L95.732 40.3875H95.6415L94.6975 36.668H89.8999L92.9905 47.8193H96.7083L103.31 36.668H97.8398Z" fill="white"/>
<path d="M107.112 42.9107L107.319 41.5766H109.116L109.885 36.668H104.099L101.59 52.6699H107.377L108.903 42.9107H107.112Z" fill="white"/>
<path d="M106.336 31.5635H106.426L105.831 35.3265H111.618L112.646 28.743H108.12L108.334 27.4017H112.86L114.334 17.9905H108.411L98.5962 35.3265H104.105L106.336 31.5635Z" fill="white"/>
<path d="M82.1215 42.2436H85.1992L86.0721 36.668H80.2787L78.2614 49.5522H81.7465L81.5331 50.8863H78.0545L77.77 52.6699H83.5633L85.0957 42.9107H82.0116L82.1215 42.2436Z" fill="white"/>
<path d="M125.539 21.9638H141.813L142.434 17.9905H120.121L119.959 19.0056H124.059L123.845 20.3469H119.752L117.405 35.3265H138.445L138.897 32.4553H123.877L125.248 23.6894H141.548L141.71 22.6381H124.802L125.539 21.9638Z" fill="white"/>
<path d="M131.914 47.8193H136.227L136.356 46.971H120.056L121.466 38.0528H136.492L136.712 36.668H115.672L113.649 49.5522H117.108L116.894 50.8863H113.442L113.164 52.6699H135.47L136.02 49.1534H131.701L131.914 47.8193Z" fill="white"/>
<path d="M168.944 19.3391H160.441L160.816 18.672H169.053L169.163 17.9905H144.684L144.07 21.9638H144.154L144.057 22.0508L143.805 23.6894H153.038L152.779 25.3208H154.997L154.79 26.6621H152.572L151.208 35.3265H157.215L159.044 23.6894H168.232L168.944 19.3391Z" fill="white"/>
<path d="M151.9 42.9107H154.505L155.482 36.668H149.475L146.96 52.6699H152.973L154.292 44.252H151.693L151.9 42.9107Z" fill="white"/>
<path d="M181.254 33.1731H185.386L182.813 17.9905H177.336L175.901 20.9632H178.662L178.455 22.3045H175.254L168.963 35.3265H174.511L178.707 26.2633H178.791L180.162 35.3265H185.754L185.502 33.8474H180.886L181.254 33.1731Z" fill="white"/>
<path d="M168.989 42.5772L169.726 41.9101H185.341L184.455 36.668H178.843L179.256 39.4449H171.084L172.37 36.668H166.797L164.424 41.5766H167.133L166.92 42.9107H163.777L159.07 52.6699H165.168L168.963 44.9916H179.832L181.073 52.6699H187.17L186.459 48.4863H182.664L182.877 47.145H186.233L185.457 42.5772H168.989Z" fill="white"/>
<path d="M221.084 50.2193H225.435L225.222 51.5534H220.877L220.702 52.6699H243.009L243.895 46.971H227.595L229.004 38.0529H244.031L244.354 36.001H223.314L221.084 50.2193Z" fill="white"/>
<path d="M246.436 32.4553H231.416L232.78 23.6894H249.087L249.604 20.3469H244.703L244.91 19.0056H249.811L249.972 17.9905H227.659L225.047 34.6594H246.086L246.436 32.4553Z" fill="white"/>
<path d="M268.07 49.2187H272.273L273.54 41.1779L271.109 37.4583L272.635 36.001H250.089L248.647 45.1947H251.026L250.813 46.5288H248.434L247.477 52.67H253.483L255.559 39.3942H265.367L267.314 42.4177L265.723 52.67H271.73L272.169 49.8857H267.701L268.07 49.2187Z" fill="white"/>
<path d="M275.997 34.2389L277.627 23.7402L274.665 19.6581H259.458L260.188 18.9838H274.148L273.404 17.9688H254.434L251.848 34.645H275.583L275.997 34.2389ZM270.385 32.1145L268.575 33.8474H257.984L259.574 23.6387H270.178L271.471 25.3715L270.385 32.1145Z" fill="white"/>
<path d="M279.909 36.001L277.323 52.6772H298.136L303.212 47.8266L304.718 38.2631L303.095 36.0082L279.909 36.001ZM298.298 50.8863H292.957L293.17 49.5522H298.505L298.298 50.8863ZM297.755 44.8901L295.485 47.0218H284.06L285.515 37.9079H296.959L298.505 40.0395L297.755 44.8901Z" fill="white"/>
<path d="M284.254 17.9905L283.989 19.6799H287.868L287.655 21.0139H283.775L281.635 34.6595H303.671L305.72 32.6583L307.227 23.3414L303.244 17.9905H284.254ZM300.121 30.7224L298.265 32.506H287.881L289.252 23.6386H299.675L300.968 25.3715L300.121 30.7224Z" fill="white"/>
<path d="M316.576 38.5024L315.225 47.145H318.141L317.927 48.4864H315.018L314.365 52.6699H320.378L322.583 38.5024L324.316 36.001H315.626L316.576 38.5024Z" fill="white"/>
<path d="M334.719 22.3045L334.932 20.9632H332.76L332.967 19.6291H337.195L338.333 17.9905H331.396L321.768 32.2088H321.678L316.55 17.9905H310.324L316.641 34.6594H326.773L329.973 30.0481H326.811L327.18 29.3811H330.432L335.34 22.3045H334.719Z" fill="white"/>
<path d="M210.628 44.3971L207.977 46.9275H197.199L198.925 36.001H192.918L190.3 52.6699H210.757L212.29 51.2198H194.464L195.201 50.5528H212.995L216.15 47.5656L217.973 36.001H211.96L210.628 44.3971Z" fill="white"/>
<path d="M215.018 30.3816L215.393 29.7146H220.495L220.644 28.743H217.928L218.141 27.4017H220.857L221.342 24.3347L216.661 17.9905H197.264L196.901 20.2961H201.382L201.175 21.6302H196.688L194.651 34.6594H200.658L202.384 23.7401H213.169L215.025 26.2633L213.693 34.6594H219.713L220.385 30.3816H215.018Z" fill="white"/>
<path d="M112.446 42.9105L112.653 41.5764H109.116L108.903 42.9105H112.446Z" fill="white"/>
<path d="M149.663 25.3208L149.449 26.6622H152.572L152.779 25.3208H149.663Z" fill="white"/>
<path d="M154.292 44.252H157.027L157.234 42.9106H154.505L154.292 44.252Z" fill="white"/>
<path d="M173.328 20.9631L173.121 22.3045H175.254L175.901 20.9631H173.328Z" fill="white"/>
<path d="M223.262 28.743L223.476 27.4016H220.857L220.644 28.743H223.262Z" fill="white"/>
<path d="M161.792 41.5764L161.585 42.9105H163.777L164.424 41.5764H161.792Z" fill="white"/>
<path d="M250.037 20.347L250.244 19.0056H249.811L249.604 20.347H250.037Z" fill="white"/>
<path d="M111.773 49.552L111.56 50.8861H113.442L113.648 49.552H111.773Z" fill="white"/>
<path d="M136.02 49.1534H137.042L137.249 47.8193H136.227L136.02 49.1534Z" fill="white"/>
<path d="M89.9448 17.9905H84.7334L84.0545 22.3045H78.8237L78.6104 23.6386H83.8476L82.0178 35.3338H87.837L88.4254 31.5635H88.5159L89.5569 35.3338H94.3868L89.9448 17.9905ZM88.6517 23.6386H83.964L84.1709 22.3045H88.8586L88.6517 23.6386Z" fill="white"/>
<path d="M335.34 22.3046H340.053L340.267 20.9633H338.094L338.308 19.6292H337.196L335.34 22.3046Z" fill="white"/>
<path d="M336.18 30.0482L336.549 29.3811H330.432L329.973 30.0482H336.18Z" fill="white"/>
<path d="M187.61 42.577L188.341 41.9099H185.341L185.457 42.577H187.61Z" fill="white"/>
<path d="M213.085 51.2198L213.816 50.5527H212.995L212.29 51.2198H213.085Z" fill="white"/>
<path d="M278.073 19.6727L278.803 19.0056H274.174L274.665 19.6727H278.073Z" fill="white"/>
<path d="M277.439 49.2185H272.273L272.169 49.8856H277.07L277.439 49.2185Z" fill="white"/>
<path d="M224.388 30.3816L224.756 29.7146H220.495L220.385 30.3816H224.388Z" fill="white"/>
<path d="M185.386 33.1731L185.503 33.8474H190.255L190.623 33.1731H185.386Z" fill="white"/>
<path d="M51.144 29.0838C51.144 28.9316 51.1893 28.8518 51.1957 28.7793C51.3056 27.757 51.4673 26.7274 51.519 25.7051C51.7075 22.6198 51.3942 19.5218 50.5944 16.5622C50.4392 16.0111 50.2647 15.4746 50.0772 14.9526C50.0116 14.3892 49.9012 13.8335 49.7474 13.2922C49.6771 13.009 49.5529 12.7462 49.3832 12.5222C49.2135 12.2981 49.0025 12.118 48.7646 11.9943C48.603 11.7043 48.4413 11.4215 48.2667 11.1388C49.2043 10.8923 50.3099 11.4578 50.3358 12.5381C50.3358 12.7411 50.3358 12.9442 50.3811 13.1544C50.3811 13.2487 50.381 13.3574 50.4974 13.3647C50.6138 13.3719 50.6655 13.2777 50.7173 13.1907C50.8494 12.9713 50.9416 12.725 50.9888 12.4656C51.1438 11.6702 51.1438 10.8466 50.9888 10.0512C50.9151 9.68117 50.7247 9.35345 50.4527 9.12831C50.1806 8.90317 49.8452 8.79577 49.5082 8.82586C49.0809 8.91632 48.6423 8.91632 48.215 8.82586C47.6344 8.68794 47.0937 8.38954 46.642 7.95777C46.1903 7.52599 45.842 6.9745 45.6287 6.35342C45.3818 5.71607 44.9858 5.16536 44.4828 4.75952C43.9797 4.35367 43.3882 4.10776 42.7708 4.04776C42.0345 3.96792 41.2924 3.98495 40.5596 4.09851C40.9062 3.83579 41.3067 3.67612 41.7234 3.63448C41.8592 3.63448 42.0337 3.63448 42.0984 3.43872C42.1631 3.24296 42.0208 3.17045 41.9238 3.07619C40.8247 2.03937 39.4604 2.04662 37.9474 2.71367C37.2466 2.99519 36.5815 3.37784 35.9689 3.85199H35.7167C35.7167 3.77949 35.762 3.72149 35.7878 3.66348C36.0206 3.09069 35.9818 2.82242 35.5939 2.5179C35.464 2.4197 35.3279 2.33245 35.1865 2.25688C35.7364 1.66469 36.3195 1.11252 36.9323 0.60376C34.2878 1.24906 33.3696 1.62608 31.514 3.32271C31.0484 3.75049 30.3307 4.38129 29.6389 5.03383C28.9036 5.20682 28.2529 5.6829 27.8156 6.36793C27.5699 6.76671 27.3112 7.14374 26.8716 6.80296C26.8069 7.05673 27.0074 7.24524 26.7617 7.47726C26.3665 7.91006 25.879 8.22209 25.3457 8.38357C24.5429 8.64378 23.6848 8.58747 22.9145 8.22406C22.8046 8.15156 22.6559 8.02105 22.5007 8.17331C22.3455 8.32558 22.4102 8.49959 22.4425 8.65185C22.6489 9.78911 23.1966 10.8127 23.9943 11.5521C24.2104 11.7444 24.4782 11.8491 24.754 11.8491C25.0299 11.8491 25.2977 11.7444 25.5138 11.5521C25.6107 11.4868 25.7077 11.3563 25.8306 11.4215C25.8375 11.4666 25.8339 11.513 25.8204 11.5561C25.8068 11.5993 25.7836 11.6378 25.753 11.6681C25.5994 11.8497 25.4888 12.0716 25.4312 12.3135C25.3736 12.5554 25.3708 12.8096 25.4232 13.0529C25.4562 13.2641 25.4406 13.4812 25.378 13.6837C25.2163 14.2783 25.0676 14.8728 24.8801 15.4673C24.7014 16.0641 24.7409 16.7159 24.99 17.28C25.1453 17.6351 25.208 18.0322 25.1711 18.4256C25.1193 18.8243 25.0288 19.2231 25.003 19.6219C24.9065 21.0002 24.7119 22.3677 24.421 23.7112C24.3499 24.0592 24.2982 24.545 23.8391 24.69L23.8003 24.8495C23.8715 24.9075 23.9684 24.9293 23.9814 25.0381C24.0913 25.8356 24.628 26.2924 25.0224 26.8579C25.2 27.1117 25.4427 27.2985 25.7178 27.3931C25.9929 27.4877 26.2872 27.4857 26.5612 27.3872C27.2021 27.1588 27.8808 27.0969 28.5462 27.206C28.7612 27.249 28.9829 27.2095 29.1753 27.0937C29.3678 26.9779 29.5197 26.7926 29.6066 26.5679C29.9382 25.8458 30.4535 25.2503 31.0872 24.8568C31.1474 24.8149 31.2038 24.7663 31.2553 24.7118C31.3698 24.6204 31.4619 24.498 31.5229 24.356C31.584 24.214 31.612 24.0571 31.6045 23.8997C31.5994 23.3946 31.4887 22.8979 31.2812 22.4496C31.3206 22.3837 31.3711 22.327 31.4299 22.2828C32.2981 21.6799 33.0898 20.9482 33.7835 20.1077C34.4081 19.3744 34.9628 18.57 35.4387 17.7078L35.7103 17.8455C35.9633 18.0003 36.1515 18.2609 36.234 18.5706C36.328 18.6709 36.3895 18.8036 36.4086 18.9476C36.6249 20.1876 36.5286 21.4706 36.1305 22.6526C35.8617 23.3822 35.5026 24.0656 35.0637 24.6828C34.2683 26.0757 33.3661 27.3881 32.3675 28.6053C30.8739 30.6427 29.5742 33.5284 30.3049 36.2039C30.3591 36.3731 30.3515 36.5595 30.2837 36.7225C30.2158 36.8855 30.0933 37.0118 29.9428 37.0739L30.0333 37.2117C29.723 37.5089 29.432 37.7917 29.154 38.0745C29.0311 38.1978 28.96 38.1905 28.8566 38.118L22.2098 33.2239C22.119 33.1466 22.055 33.0364 22.0287 32.9121C21.9059 32.2813 21.7572 31.8535 20.5416 31.9188C20.4769 31.9696 19.3842 32.8686 18.3432 33.7967C18.1594 33.9974 17.9383 34.1502 17.6958 34.2442C17.4533 34.3381 17.1953 34.371 16.9402 34.3405C16.8348 34.3295 16.7287 34.3295 16.6233 34.3405H15.1168C15.0586 34.674 15.0328 34.9713 14.9552 35.2685C14.9119 35.4153 14.9022 35.5719 14.927 35.724C14.9519 35.876 15.0105 36.0186 15.0974 36.1386C16.9433 39.0962 18.2708 42.4204 19.0092 45.9341C19.4553 48.1092 20.1084 48.45 19.326 50.8427C21.3413 52.2159 23.6842 52.8613 26.0375 52.6916C26.1862 50.5164 26.1539 48.5515 26.0052 48.595L23.865 49.2476L21.9253 49.8421C21.4921 45.6441 21.0589 41.4677 20.6321 37.2189L31.3911 52.6843C31.4558 52.6335 35.4322 52.6843 35.4775 52.6843C36.803 51.604 67.9873 21.7971 70.5025 19.7524C70.69 19.6001 71.7956 12.1321 71.8344 11.9871C64.8902 17.483 58.0882 23.6459 51.144 29.0838ZM34.43 3.81574H34.0292C34.2828 3.38451 34.5753 2.98364 34.902 2.61941C35.012 3.1777 34.915 3.40246 34.43 3.83024V3.81574Z" fill="white"/>
<path d="M64.8837 52.7206L67.0498 40.1047L53.4717 52.7206H64.8837Z" fill="white"/>
<path d="M0 52.7206H10.8237L2.08843 40.5833L0 52.7206Z" fill="white"/>
<path d="M69.2548 26.51L41.3745 52.7207L48.5709 52.6989L68.0264 34.2101L69.2548 26.51Z" fill="white"/>
<path d="M3.12305 34.6813L16.0416 52.7133L12.0652 37.6757L4.42913 27.0537L3.12305 34.6813Z" fill="white"/>
<path d="M16.365 31.2589C16.8111 31.2589 18.5633 28.8373 18.5633 28.8373L6.92499 12.6323L5.63184 20.3324L13.3907 31.1139L16.365 31.2589Z" fill="white"/>
</svg>
